#N canvas 1023 255 711 573 10;
#X obj 76 -14 inlet~;
#X obj 76 369 outlet~;
#X obj 76 200 *~;
#X obj 207 156 *~;
#X obj 222 125 line~;
#X obj 92 141 line~;
#X obj 92 101 expr 1-$f1;
#X text 360 -17 <-- This inlet turns the;
#X text 367 -3 audio on and off in the;
#X text 367 12 effect's subpatch ("core").;
#X text 367 26 It also acts as a switch;
#X text 368 41 between the two paths the;
#X text 213 282 <-- Wet path;
#X obj 319 18 f;
#X obj 319 -14 inlet;
#X text 368 56 audio can take.;
#X text 368 69 You can also use the toggle;
#X text 368 81 in the GUI area instead.;
#X obj 207 369 outlet~;
#X obj 319 369 outlet;
#X text 82 282 <-- Dry path;
#X text 329 282 <-- Audio On/Off;
#X obj 92 121 pack 0 25;
#X obj 222 105 pack 0 25;
#X connect 0 0 2 0;
#X connect 0 0 3 0;
#X connect 2 0 1 0;
#X connect 3 0 18 0;
#X connect 4 0 3 1;
#X connect 5 0 2 1;
#X connect 6 0 22 0;
#X connect 13 0 6 0;
#X connect 13 0 19 0;
#X connect 13 0 23 0;
#X connect 14 0 13 0;
#X connect 22 0 5 0;
#X connect 23 0 4 0;
