#N canvas 927 198 848 649 10;
#X obj 436 125 *~ 2;
#X obj 436 160 +~ 2;
#X obj 544 189 *~ 2;
#X obj 544 222 +~ 2;
#X obj 108 230 delwrite~ phase2 100;
#X obj 544 255 vd~ phase2;
#X obj 544 123 wrap~;
#X obj 486 29 phasor~;
#X obj 544 90 +~ 0.5;
#X obj 436 90 cos~;
#X obj 544 156 cos~;
#X obj 108 182 *~ 0.8;
#X obj 108 94 *~ 0.8;
#X text 237 139 <-- Write to delay lines;
#X obj 436 195 vd~ phase1;
#X obj 108 140 delwrite~ phase1 100;
#X text 539 29 <-- Low Frequency Oscillator (LFO);
#X obj 48 328 outlet~;
#X obj 48 -51 inlet~;
#X obj 400 -23 switch~;
#X obj 400 -50 inlet;
#X text 441 -50 <-- Turns audio computation On/Off;
#X obj 128 -51 inlet;
#X obj 202 -51 inlet;
#X obj 276 -51 inlet;
#X text 150 94 <-- Feedback amount;
#X text 614 256 <-- Read from delay line;
#X text 381 361 Pierre Massat \, GuitarExtended \, 2012 \, modified
by Igor Mircic 2017;
#X connect 0 0 1 0;
#X connect 1 0 14 0;
#X connect 2 0 3 0;
#X connect 3 0 5 0;
#X connect 5 0 11 0;
#X connect 5 0 17 0;
#X connect 6 0 10 0;
#X connect 7 0 8 0;
#X connect 7 0 9 0;
#X connect 8 0 6 0;
#X connect 9 0 0 0;
#X connect 10 0 2 0;
#X connect 11 0 4 0;
#X connect 12 0 15 0;
#X connect 14 0 12 0;
#X connect 14 0 17 0;
#X connect 18 0 17 0;
#X connect 18 0 4 0;
#X connect 18 0 15 0;
#X connect 20 0 19 0;
#X connect 22 0 7 0;
#X connect 23 0 0 1;
#X connect 23 0 1 1;
#X connect 23 0 2 1;
#X connect 23 0 3 1;
#X connect 24 0 11 1;
#X connect 24 0 12 1;
