#N canvas 945 56 721 849 10;
#X obj 63 93 freeverb~;
#X msg 139 -109 roomsize \$1;
#X msg 225 -109 damping \$1;
#X text 176 204 Pierre Massat \, GuitarExtended \, 2012;
#X obj 63 -196 inlet~;
#X obj 63 164 outlet~;
#X obj 327 -155 switch~;
#X obj 327 -193 inlet;
#X text 364 -193 <-- Turns audio computation On/Off;
#X obj 139 -193 inlet;
#X obj 225 -193 inlet;
#X msg 172 33 wet 1;
#X obj 172 3 loadbang;
#X connect 0 0 5 0;
#X connect 1 0 0 0;
#X connect 2 0 0 0;
#X connect 4 0 0 0;
#X connect 7 0 6 0;
#X connect 9 0 1 0;
#X connect 10 0 2 0;
#X connect 11 0 0 0;
#X connect 12 0 11 0;
