#N canvas 1268 103 556 551 10;
#X obj 117 130 *~ 0.6;
#X obj 15 -35 inlet~;
#X obj 15 241 outlet~;
#X obj 82 -35 inlet;
#X obj 150 -35 inlet;
#X obj 15 84 delwrite~ delay 1000;
#X obj 16 170 delread~ delay 200;
#X obj 224 3 switch~;
#X obj 224 -35 inlet;
#X text 261 -35 <-- Turns audio computation On/Off;
#X connect 0 0 5 0;
#X connect 1 0 5 0;
#X connect 3 0 6 0;
#X connect 4 0 0 1;
#X connect 6 0 0 0;
#X connect 6 0 2 0;
#X connect 8 0 7 0;
