#N canvas 1031 275 618 520 10;
#X obj 17 128 *~ 40;
#X text 111 293 <-- Hard-clip it to produce audible distortion;
#X obj 17 294 clip~ -0.5 0.5;
#X obj 17 33 inlet~;
#X obj 17 344 outlet~;
#X text 57 127 <-- Amplify the sound;
#X obj 57 252 * -1;
#X obj 176 60 switch~;
#X obj 176 33 inlet;
#X obj 64 33 inlet;
#X obj 105 33 inlet;
#X text 217 33 <-- Turns audio computation On/Off;
#X connect 0 0 2 0;
#X connect 2 0 4 0;
#X connect 3 0 0 0;
#X connect 6 0 2 1;
#X connect 8 0 7 0;
#X connect 9 0 0 1;
#X connect 10 0 6 0;
#X connect 10 0 2 2;
