#N canvas 1963 0 941 798 10;
#X obj 58 383 route 0;
#X obj 58 295 *~ 5;
#X obj 105 143 hsl 300 15 -1 1 0 0 empty cursor_tuner empty -2 -8 0
10 -262144 -1 -1 0 1;
#X obj 66 664 s cursor_tuner;
#N canvas 0 0 450 300 (subpatch) 0;
#X array Tuner_ticks 12 float 3 black black;
#A 0 0 0 0 0 0 0 0 0 0 0 0 0;
#X coords 0 1 12 0 300 10 1;
#X restore 105 131 graph;
#X floatatom 237 158 7 0 0 0 - - -, f 7;
#X obj 168 243 loadbang;
#X obj 373 101 tgl 30 0 tuner_on_snd tuner_on_rcv empty 17 7 0 10 -262144
-1 -1 0 1;
#X obj 475 220 switch~;
#X obj 402 17 loadbang;
#X msg 395 61 0;
#X text 250 110 |;
#X obj 467 402 s String1;
#X obj 527 402 s String2;
#X obj 587 402 s String3;
#X obj 647 402 s String4;
#X obj 707 402 s String5;
#X obj 767 402 s String6;
#X obj 83 476 r String1;
#X obj 143 476 r String2;
#X obj 203 476 r String3;
#X obj 263 476 r String4;
#X obj 323 476 r String5;
#X obj 383 476 r String6;
#X msg 503 343 40 45 50 55 59 64;
#X obj 503 371 unpack 0 0 0 0 0 0;
#X msg 84 332 npts 16384;
#X obj 58 405 unpack 0 0;
#X obj 58 363 sigmund~ -npeak 1 peaks;
#X msg 526 163 C;
#X msg 582 163 D;
#X msg 638 163 E;
#X obj 566 80 mod 12;
#X obj 566 100 sel 0 1 2 3 4 5 6 7 8 9 10 11;
#X msg 666 163 F;
#X msg 722 163 G;
#X msg 778 163 A;
#X msg 834 163 B;
#X obj 633 215 symbol;
#X obj 289 106 cnv 15 65 20 empty Note_name E 5 10 0 14 -4034 -1 0
;
#X msg 633 235 \; Note_name label \$1 \;;
#X obj 458 530 IdentifyNote;
#X obj 335 661 s midi_to_letter;
#X obj 566 60 r midi_to_letter;
#X text 684 61 Get the letter corresponding to target note;
#X text 631 271 Display it in the GUI;
#X text 223 361 Analyse the frequency of;
#X text 223 377 fundamental (play one;
#X text 223 392 string at a time!);
#X text 628 341 Send list of midi target notes (one for each string)
;
#X obj 520 293 inlet;
#X text 556 303 Get custom list of midi target notes (for non-standard
tuning);
#X text 577 576 Pierre Massat \, GuitarExtended \, 2012;
#X obj 58 529 IdentifyNote;
#X obj 143 529 IdentifyNote;
#X obj 222 529 IdentifyNote;
#X obj 301 530 IdentifyNote;
#X obj 380 530 IdentifyNote;
#X obj 58 196 inlet~;
#X msg 178 290 \; Tuner_ticks xticks 6 1 1 \; Note_name label Note
\;;
#X msg 694 163 F#;
#X msg 554 163 C#;
#X msg 610 163 D#;
#X msg 750 163 G#;
#X msg 806 163 A#;
#X connect 0 0 27 0;
#X connect 1 0 28 0;
#X connect 2 0 5 0;
#X connect 6 0 59 0;
#X connect 6 0 24 0;
#X connect 6 0 26 0;
#X connect 7 0 8 0;
#X connect 9 0 10 0;
#X connect 10 0 7 0;
#X connect 18 0 53 1;
#X connect 19 0 54 1;
#X connect 20 0 55 1;
#X connect 21 0 56 1;
#X connect 22 0 57 1;
#X connect 23 0 41 1;
#X connect 24 0 25 0;
#X connect 25 0 12 0;
#X connect 25 1 13 0;
#X connect 25 2 14 0;
#X connect 25 3 15 0;
#X connect 25 4 16 0;
#X connect 25 5 17 0;
#X connect 26 0 28 0;
#X connect 27 0 41 0;
#X connect 27 0 53 0;
#X connect 27 0 54 0;
#X connect 27 0 55 0;
#X connect 27 0 56 0;
#X connect 27 0 57 0;
#X connect 28 0 0 0;
#X connect 29 0 38 0;
#X connect 30 0 38 0;
#X connect 31 0 38 0;
#X connect 32 0 33 0;
#X connect 33 0 29 0;
#X connect 33 1 61 0;
#X connect 33 2 30 0;
#X connect 33 3 62 0;
#X connect 33 4 31 0;
#X connect 33 5 34 0;
#X connect 33 6 60 0;
#X connect 33 7 35 0;
#X connect 33 8 63 0;
#X connect 33 9 36 0;
#X connect 33 10 64 0;
#X connect 33 11 37 0;
#X connect 34 0 38 0;
#X connect 35 0 38 0;
#X connect 36 0 38 0;
#X connect 37 0 38 0;
#X connect 38 0 40 0;
#X connect 41 0 3 0;
#X connect 41 1 42 0;
#X connect 43 0 32 0;
#X connect 50 0 25 0;
#X connect 53 0 3 0;
#X connect 53 1 42 0;
#X connect 54 0 3 0;
#X connect 54 1 42 0;
#X connect 55 0 3 0;
#X connect 55 1 42 0;
#X connect 56 0 3 0;
#X connect 56 1 42 0;
#X connect 57 0 3 0;
#X connect 57 1 42 0;
#X connect 58 0 1 0;
#X connect 60 0 38 0;
#X connect 61 0 38 0;
#X connect 62 0 38 0;
#X connect 63 0 38 0;
#X connect 64 0 38 0;
#X coords 0 -1 1 1 310 75 2 100 100;
