#N canvas 1150 238 506 365 10;
#X obj 36 -194 vd~ vibrato;
#X obj 36 -278 *~ 1;
#X obj 36 -236 +~ 2;
#X obj 36 -362 delwrite~ vibrato 50;
#X obj 36 -320 osc~ 2;
#X obj 91 -278 * 2;
#X obj 36 -404 inlet~;
#X obj 36 -152 outlet~;
#X obj 99 -404 inlet;
#X obj 156 -404 inlet;
#X obj 240 -377 switch~;
#X obj 240 -404 inlet;
#X text 281 -404 <-- Turns audio computation On/Off;
#X text 82 -121 Pierre Massat \, GuitarExtended \, 2012 \, modified
by Igor Mircic 2017, f 66;
#X connect 0 0 7 0;
#X connect 1 0 2 0;
#X connect 2 0 0 0;
#X connect 4 0 1 0;
#X connect 5 0 2 1;
#X connect 6 0 3 0;
#X connect 8 0 4 0;
#X connect 9 0 1 1;
#X connect 9 0 5 0;
#X connect 11 0 10 0;
