#N canvas 1070 201 601 566 10;
#X obj 9 253 vcf~;
#X obj 26 -125 +~ 1;
#X obj 26 -104 *~ 0.5;
#X obj 26 -146 osc~ 2;
#X obj 65 -5 -;
#X obj 142 -176 bang;
#X obj 26 160 +~ 200;
#X obj 26 38 *~ 1500;
#X text 49 253 <-- Voltage-Controlled band-pass filter;
#X obj 9 -215 inlet~;
#X obj 9 288 outlet~;
#X obj 76 -215 inlet;
#X obj 137 -215 inlet;
#X obj 198 -215 inlet;
#X obj 259 -215 inlet;
#X obj 336 -188 switch~;
#X obj 336 -215 inlet;
#X text 377 -215 <-- Turns audio computation On/Off;
#X text 70 -147 <--LFO (Low-Frequency Oscillator);
#X text 168 303 Pierre Massat \, GuitarExtended \, 2012 \, modified
by Igor Mircic 2017;
#X connect 0 0 10 0;
#X connect 1 0 2 0;
#X connect 2 0 7 0;
#X connect 3 0 1 0;
#X connect 4 0 7 1;
#X connect 5 0 4 0;
#X connect 6 0 0 1;
#X connect 7 0 6 0;
#X connect 9 0 0 0;
#X connect 11 0 3 0;
#X connect 12 0 4 0;
#X connect 13 0 6 1;
#X connect 13 0 5 0;
#X connect 13 0 4 1;
#X connect 14 0 0 2;
#X connect 16 0 15 0;
