#N canvas 1070 201 736 620 10;
#X obj 63 253 vcf~;
#X floatatom 154 217 5 0 0 0 - - -, f 5;
#X obj 154 84 vsl 15 128 0 20 0 0 empty empty empty 0 -9 0 10 -262144
-1 -1 5901 1;
#X obj 74 -115 +~ 1;
#X obj 74 -94 *~ 0.5;
#X obj 74 -136 osc~ 2;
#X obj 188 -99 hsl 128 15 700 6000 0 0 empty empty empty -2 -8 0 10
-262144 -1 -1 4362 1;
#X obj 285 -36 hsl 128 15 0 700 0 0 empty empty empty -2 -8 0 10 -262144
-1 -1 4362 1;
#X floatatom 182 43 6 0 0 0 - - -, f 6;
#X floatatom 183 -15 6 0 0 0 - - -, f 6;
#X obj 183 -34 -;
#X obj 183 -56 bang;
#X obj 83 50 +~ 200;
#X obj 82 -32 *~ 1500;
#X text 123 -136 <-- LFO (Low-Frequency Oscillator;
#X text 321 -101 <-- Maximum of the freq. range;
#X text 418 -39 <-- Minimum of the freq. range;
#X text 191 174 <-- "Q";
#X text 102 254 <-- Voltage-Controlled band-pass filter;
#X obj 74 -165 hsl 128 15 0.5 4 0 0 empty empty empty -2 -8 0 10 -262144
-1 -1 8980 1;
#X text 315 301 Pierre Massat \, GuitarExtended \, 2012.s;
#X obj 226 75 loadbang;
#X msg 224 100 5.3;
#X obj 9 -215 inlet~;
#X obj 57 288 outlet~;
#X obj 56 -215 inlet;
#X obj 97 -215 inlet;
#X obj 138 -215 inlet;
#X obj 179 -215 inlet;
#X obj 246 -188 switch~;
#X obj 246 -215 inlet;
#X text 287 -215 <-- Turns audio computation On/Off;
#X connect 0 0 24 0;
#X connect 2 0 1 0;
#X connect 2 0 0 2;
#X connect 3 0 4 0;
#X connect 4 0 13 0;
#X connect 5 0 3 0;
#X connect 6 0 10 0;
#X connect 7 0 8 0;
#X connect 7 0 10 1;
#X connect 7 0 11 0;
#X connect 7 0 12 1;
#X connect 10 0 9 0;
#X connect 10 0 13 1;
#X connect 11 0 10 0;
#X connect 12 0 0 1;
#X connect 13 0 12 0;
#X connect 19 0 5 0;
#X connect 21 0 22 0;
#X connect 22 0 2 0;
#X connect 23 0 0 0;
#X connect 25 0 19 0;
#X connect 26 0 6 0;
#X connect 27 0 7 0;
#X connect 28 0 2 0;
#X connect 30 0 29 0;
