#N canvas 66 160 832 699 10;
#X obj 82 -113 inlet~;
#X obj 82 270 outlet~;
#X obj 82 101 *~;
#X obj 191 57 *~;
#X obj 206 26 line~;
#X obj 98 42 line~;
#X obj 98 2 expr 1-$f1;
#X text 197 183 <-- Wet path;
#X obj 206 -81 f;
#X obj 206 -113 inlet;
#X obj 191 270 outlet~;
#X text 88 183 <-- Dry path;
#X obj 98 22 pack 0 25;
#X obj 206 6 pack 0 25;
#X obj 144 -113 inlet~;
#X text 151 300 Pierre Massat \, GuitarExtended \, 2012 \, modified
by Igor Mircic 2017;
#X connect 0 0 2 0;
#X connect 2 0 1 0;
#X connect 3 0 10 0;
#X connect 4 0 3 1;
#X connect 5 0 2 1;
#X connect 6 0 12 0;
#X connect 8 0 6 0;
#X connect 8 0 13 0;
#X connect 9 0 8 0;
#X connect 12 0 5 0;
#X connect 13 0 4 0;
#X connect 14 0 3 0;
