#N canvas 1940 -215 643 993 10;
#X obj 101 794 dac~, f 5;
#X obj 2 -27 pddp/dsp;
#N canvas 2507 -215 1122 970 OSC 1;
#X obj -31 130 cnv 15 487 251 empty empty Tuner 20 20 0 14 -262144
-66577 0;
#X obj -35 393 cnv 15 494 281 empty empty Fuzz 20 20 0 14 -260956 -66577
0;
#X obj 316 69 unpackOSC;
#X obj 316 41 udpreceive 8000;
#X obj 175 427 routeOSC /1;
#X obj -39 97 sendOSC;
#X obj -29 520 s sf_level_rcv;
#X obj 221 520 s sf_fuzz_rcv;
#X obj 221 487 routeOSC /sf_fuzz;
#X obj 99 520 s sf_gain_rcv;
#X obj 99 487 routeOSC /sf_gain;
#X obj 343 520 s sf_on_rcv;
#X obj 343 487 routeOSC /sf_on;
#X obj -29 553 r sf_level_snd;
#X msg -29 586 send /1/sf_level \$1;
#X obj 221 553 r sf_fuzz_snd;
#X msg 221 586 send /1/sf_fuzz \$1;
#X obj 99 553 r sf_gain_snd;
#X msg 99 586 send /1/sf_gain \$1;
#X obj 343 553 r sf_on_snd;
#X msg 343 586 send /1/sf_on \$1;
#X obj 316 97 s osc_rcv;
#X obj 175 399 r osc_rcv;
#X obj -19 69 r osc_snd;
#X obj 175 651 s osc_snd;
#X obj -35 683 cnv 15 644 281 empty empty Phaser 20 20 0 14 -212212
-66577 0;
#X obj 175 689 r osc_rcv;
#X obj 175 941 s osc_snd;
#X obj -29 777 routeOSC /ph_level;
#X obj -29 810 s ph_level_rcv;
#X obj -29 843 r ph_level_snd;
#X obj 99 777 routeOSC /ph_speed;
#X obj 99 810 s ph_speed_rcv;
#X obj 99 843 r ph_speed_snd;
#X obj 225 777 routeOSC /ph_depth;
#X obj 225 810 s ph_depth_rcv;
#X obj 225 843 r ph_depth_snd;
#X obj 351 777 routeOSC /ph_fback;
#X obj 351 810 s ph_fback_rcv;
#X obj 351 843 r ph_fback_snd;
#X obj 175 717 routeOSC /2;
#X msg -29 876 send /2/sf_level \$1;
#X msg 99 876 send /2/ph_speed \$1;
#X msg 225 876 send /2/ph_depth \$1;
#X msg 351 876 send /2/ph_fback \$1;
#X obj 482 777 routeOSC /ph_on;
#X obj 482 810 s ph_on_rcv;
#X obj 482 843 r ph_on_snd;
#X msg 482 876 send /2/ph_on \$1;
#X obj -29 487 routeOSC /sf_level;
#X obj -35 975 cnv 15 644 281 empty empty Tremolo 20 20 0 14 -184308
-66577 0;
#X obj 175 981 r osc_rcv;
#X obj 175 1233 s osc_snd;
#X obj 175 1009 routeOSC /3;
#X obj -29 1069 routeOSC /tm_level;
#X obj -29 1102 s tm_level_rcv;
#X obj -29 1135 r tm_level_snd;
#X msg -29 1168 send /3/tm_level \$1;
#X obj 99 1069 routeOSC /tm_rate;
#X obj 99 1102 s tm_rate_rcv;
#X obj 99 1135 r tm_rate_snd;
#X msg 99 1168 send /3/tm_rate \$1;
#X obj 225 1069 routeOSC /tm_shape;
#X obj 225 1102 s tm_shape_rcv;
#X obj 225 1135 r tm_shape_snd;
#X msg 225 1168 send /3/tm_shape \$1;
#X obj 351 1069 routeOSC /tm_depth;
#X obj 351 1102 s tm_depth_rcv;
#X obj 351 1135 r tm_depth_snd;
#X msg 351 1168 send /3/tm_depth \$1;
#X obj 482 1069 routeOSC /tm_on;
#X obj 482 1102 s tm_on_rcv;
#X obj 482 1135 r tm_on_snd;
#X msg 482 1168 send /3/tm_on \$1;
#X obj -35 1265 cnv 15 502 279 empty empty Vibrato 20 20 0 14 -176063
-66577 0;
#X obj 175 1271 r osc_rcv;
#X obj 175 1523 s osc_snd;
#X obj 175 1299 routeOSC /4;
#X obj -29 1359 routeOSC /vi_level;
#X obj -29 1392 s vi_level_rcv;
#X obj -29 1425 r vi_level_snd;
#X msg -29 1458 send /4/vi_level \$1;
#X obj 99 1359 routeOSC /vi_speed;
#X obj 99 1392 s vi_speed_rcv;
#X obj 99 1425 r vi_speed_snd;
#X msg 99 1458 send /4/vi_speed \$1;
#X obj 225 1359 routeOSC /vi_depth;
#X obj 225 1392 s vi_depth_rcv;
#X obj 225 1425 r vi_depth_snd;
#X msg 225 1458 send /4/vi_depth \$1;
#X obj 351 1359 routeOSC /vi_on;
#X obj 351 1392 s vi_on_rcv;
#X obj 351 1425 r vi_on_snd;
#X msg 351 1458 send /4/vi_on \$1;
#X obj -35 1555 cnv 15 746 276 empty empty WahAuto 20 20 0 14 -261802
-66577 0;
#X obj 175 1561 r osc_rcv;
#X obj 175 1813 s osc_snd;
#X obj 175 1589 routeOSC /5;
#X obj -29 1649 routeOSC /wa_level;
#X obj -29 1682 s wa_level_rcv;
#X obj -29 1715 r wa_level_snd;
#X msg -29 1748 send /5/wa_level \$1;
#X obj 97 1649 routeOSC /wa_rate;
#X obj 97 1682 s wa_rate_rcv;
#X obj 97 1715 r wa_rate_snd;
#X msg 97 1748 send /5/wa_rate \$1;
#X obj 217 1649 routeOSC /wa_freqmax;
#X obj 217 1682 s wa_freqmax_rcv;
#X obj 217 1715 r wa_freqmax_snd;
#X msg 217 1748 send /5/wa_freqmax \$1;
#X obj 356 1649 routeOSC /wa_freqmin;
#X obj 356 1682 s wa_freqmin_rcv;
#X obj 356 1715 r wa_freqmin_snd;
#X msg 356 1748 send /5/wa_freqmin \$1;
#X obj 599 1649 routeOSC /wa_on;
#X obj 599 1682 s wa_on_rcv;
#X obj 599 1715 r wa_on_snd;
#X msg 599 1748 send /5/wa_on \$1;
#X obj -35 1845 cnv 15 494 281 empty empty Delay 20 20 0 14 -228600
-66577 0;
#X obj 175 1851 r osc_rcv;
#X obj 175 2103 s osc_snd;
#X obj 175 1879 routeOSC /6;
#X obj -29 1939 routeOSC /sd_level;
#X obj -29 1972 s sd_level_rcv;
#X obj -29 2005 r sd_level_snd;
#X msg -29 2038 send /6/sd_level \$1;
#X obj 99 1939 routeOSC /sd_delay;
#X obj 99 1972 s sd_delay_rcv;
#X obj 99 2005 r sd_delay_snd;
#X msg 99 2038 send /6/sd_delay \$1;
#X obj 226 1939 routeOSC /sd_fback;
#X obj 226 1972 s sd_fback_rcv;
#X obj 226 2005 r sd_fback_snd;
#X msg 226 2038 send /6/sd_fback \$1;
#X obj 353 1939 routeOSC /sd_on;
#X obj 353 1972 s sd_on_rcv;
#X obj 354 2005 r sd_on_snd;
#X msg 353 2038 send /6/sd_on \$1;
#X obj -35 2136 cnv 15 556 282 empty empty Delay 20 20 0 14 -261414
-66577 0;
#X obj 175 2142 r osc_rcv;
#X obj 175 2394 s osc_snd;
#X obj 175 2170 routeOSC /7;
#X obj -29 2230 routeOSC /rev_level;
#X obj -29 2263 s rev_level_rcv;
#X obj -29 2296 r rev_level_snd;
#X msg -29 2329 send /7/rev_level \$1;
#X obj 105 2230 routeOSC /rev_roomsize;
#X obj 105 2263 s rev_roomsize_rcv;
#X obj 105 2296 r rev_roomsize_snd;
#X msg 105 2329 send /7/rev_roomsize \$1;
#X obj 257 2230 routeOSC /rev_damping;
#X obj 257 2263 s rev_damping_rcv;
#X obj 257 2296 r rev_damping_snd;
#X msg 257 2329 send /7/rev_damping \$1;
#X obj 404 2230 routeOSC /rev_on;
#X obj 404 2263 s rev_on_rcv;
#X obj 405 2296 r rev_on_snd;
#X msg 404 2329 send /7/rev_on \$1;
#X obj -39 2 loadbang;
#X msg -39 42 connect 192.168.1.3 9000;
#X text 122 40 <-- IP/Port of Android phone;
#X text 424 40 <-- Port for reciving OSC messages;
#X obj 496 1649 routeOSC /wa_q;
#X obj 496 1682 s wa_q_rcv;
#X obj 496 1715 r wa_q_snd;
#X msg 496 1748 send /5/wa_q \$1;
#X obj 136 284 r cursor_tuner;
#X msg 135 315 send /8/cursor_tuner \$1;
#X obj 136 345 s osc_snd;
#X msg 296 315 send /8/label_test \$1;
#X obj 296 284 r Note_name;
#X obj 140 154 r osc_rcv;
#X obj -4 222 routeOSC /tuner_on;
#X obj 140 182 routeOSC /8;
#X obj -4 253 s tuner_on_rcv;
#X obj -4 284 r tuner_on_snd;
#X msg -4 315 send /8/tuner_on \$1;
#X connect 2 0 21 0;
#X connect 3 0 2 0;
#X connect 4 0 8 0;
#X connect 4 0 10 0;
#X connect 4 0 12 0;
#X connect 4 0 49 0;
#X connect 8 0 7 0;
#X connect 10 0 9 0;
#X connect 12 0 11 0;
#X connect 13 0 14 0;
#X connect 14 0 24 0;
#X connect 15 0 16 0;
#X connect 16 0 24 0;
#X connect 17 0 18 0;
#X connect 18 0 24 0;
#X connect 19 0 20 0;
#X connect 20 0 24 0;
#X connect 22 0 4 0;
#X connect 23 0 5 0;
#X connect 26 0 40 0;
#X connect 28 0 29 0;
#X connect 30 0 41 0;
#X connect 31 0 32 0;
#X connect 33 0 42 0;
#X connect 34 0 35 0;
#X connect 36 0 43 0;
#X connect 37 0 38 0;
#X connect 39 0 44 0;
#X connect 40 0 28 0;
#X connect 40 0 31 0;
#X connect 40 0 34 0;
#X connect 40 0 37 0;
#X connect 40 0 45 0;
#X connect 41 0 27 0;
#X connect 42 0 27 0;
#X connect 43 0 27 0;
#X connect 44 0 27 0;
#X connect 45 0 46 0;
#X connect 47 0 48 0;
#X connect 48 0 27 0;
#X connect 49 0 6 0;
#X connect 51 0 53 0;
#X connect 53 0 54 0;
#X connect 53 0 58 0;
#X connect 53 0 62 0;
#X connect 53 0 66 0;
#X connect 53 0 70 0;
#X connect 54 0 55 0;
#X connect 56 0 57 0;
#X connect 57 0 52 0;
#X connect 58 0 59 0;
#X connect 60 0 61 0;
#X connect 61 0 52 0;
#X connect 62 0 63 0;
#X connect 64 0 65 0;
#X connect 65 0 52 0;
#X connect 66 0 67 0;
#X connect 68 0 69 0;
#X connect 69 0 52 0;
#X connect 70 0 71 0;
#X connect 72 0 73 0;
#X connect 73 0 52 0;
#X connect 75 0 77 0;
#X connect 77 0 78 0;
#X connect 77 0 82 0;
#X connect 77 0 86 0;
#X connect 77 0 90 0;
#X connect 78 0 79 0;
#X connect 80 0 81 0;
#X connect 81 0 76 0;
#X connect 82 0 83 0;
#X connect 84 0 85 0;
#X connect 85 0 76 0;
#X connect 86 0 87 0;
#X connect 88 0 89 0;
#X connect 89 0 76 0;
#X connect 90 0 91 0;
#X connect 92 0 93 0;
#X connect 93 0 76 0;
#X connect 95 0 97 0;
#X connect 97 0 98 0;
#X connect 97 0 102 0;
#X connect 97 0 106 0;
#X connect 97 0 110 0;
#X connect 97 0 114 0;
#X connect 97 0 162 0;
#X connect 98 0 99 0;
#X connect 100 0 101 0;
#X connect 101 0 96 0;
#X connect 102 0 103 0;
#X connect 104 0 105 0;
#X connect 105 0 96 0;
#X connect 106 0 107 0;
#X connect 108 0 109 0;
#X connect 109 0 96 0;
#X connect 110 0 111 0;
#X connect 112 0 113 0;
#X connect 113 0 96 0;
#X connect 114 0 115 0;
#X connect 116 0 117 0;
#X connect 117 0 96 0;
#X connect 119 0 121 0;
#X connect 121 0 122 0;
#X connect 121 0 126 0;
#X connect 121 0 130 0;
#X connect 121 0 134 0;
#X connect 122 0 123 0;
#X connect 124 0 125 0;
#X connect 125 0 120 0;
#X connect 126 0 127 0;
#X connect 128 0 129 0;
#X connect 129 0 120 0;
#X connect 130 0 131 0;
#X connect 132 0 133 0;
#X connect 133 0 120 0;
#X connect 134 0 135 0;
#X connect 136 0 137 0;
#X connect 137 0 120 0;
#X connect 139 0 141 0;
#X connect 141 0 142 0;
#X connect 141 0 146 0;
#X connect 141 0 150 0;
#X connect 141 0 154 0;
#X connect 142 0 143 0;
#X connect 144 0 145 0;
#X connect 145 0 140 0;
#X connect 146 0 147 0;
#X connect 148 0 149 0;
#X connect 149 0 140 0;
#X connect 150 0 151 0;
#X connect 152 0 153 0;
#X connect 153 0 140 0;
#X connect 154 0 155 0;
#X connect 156 0 157 0;
#X connect 157 0 140 0;
#X connect 158 0 159 0;
#X connect 159 0 5 0;
#X connect 162 0 163 0;
#X connect 164 0 165 0;
#X connect 165 0 96 0;
#X connect 166 0 167 0;
#X connect 167 0 168 0;
#X connect 169 0 168 0;
#X connect 170 0 169 0;
#X connect 171 0 173 0;
#X connect 172 0 174 0;
#X connect 173 0 172 0;
#X connect 175 0 176 0;
#X connect 176 0 168 0;
#X restore 136 -25 pd OSC;
#N canvas 834 273 580 592 Fuzz 0;
#X obj 27 53 cnv 15 114 70 empty empty Fuzz 8 8 0 14 -243521 -66577
0;
#X obj 212 12 inlet~;
#X obj 212 372 outlet~;
#X text 130 265 Dry path -->;
#X obj 273 12 inlet;
#X text 258 265 <-- Wet path;
#X obj 126 53 tgl 15 1 sf_on_snd sf_on_rcv empty 17 7 0 10 -262144
-1 -1 0 1;
#X obj 72 93 mknob 25 100 1 100 0 1 sf_gain_snd sf_gain_rcv Gain -2
-6 0 8 -262144 -1 -1 5014 1;
#X obj 113 93 mknob 25 100 1 0.2 0 1 sf_fuzz_snd sf_fuzz_rcv Fuzz -2
-6 0 8 -262144 -1 -1 9900 1;
#X obj 335 126 r sf_volume_snd;
#X obj 335 155 r sf_fuzz_snd;
#X obj 31 93 mknob 25 100 0 1 0 1 sf_level_snd sf_level_rcv Level -2
-6 0 8 -262144 -1 -1 5005 1;
#X obj 335 267 r sf_level_snd;
#X obj 212 97 Effect_AB_Switch~;
#X obj 258 204 Simple_Fuzz~;
#X obj 212 325 Wet_Dry_Mix~;
#X text 326 422 Igor Mircic 2017;
#X connect 1 0 13 0;
#X connect 4 0 6 0;
#X connect 6 0 13 1;
#X connect 9 0 14 1;
#X connect 10 0 14 2;
#X connect 12 0 15 2;
#X connect 13 0 15 0;
#X connect 13 1 14 0;
#X connect 13 2 14 3;
#X connect 14 0 15 1;
#X connect 15 0 2 0;
#X connect 15 1 2 0;
#X coords 0 -1 1 1 120 76 1 24 50;
#X restore 101 199 pd Fuzz;
#X obj 101 53 adc~ 1;
#N canvas 2432 0 727 773 Delay 0;
#X obj 27 53 cnv 15 114 70 empty empty Delay 8 8 0 14 -174059 -66577
0;
#X obj 212 12 inlet~;
#X obj 212 372 outlet~;
#X text 130 265 Dry path -->;
#X obj 273 12 inlet;
#X text 258 265 <-- Wet path;
#X obj 126 53 tgl 15 1 sd_on_snd sd_on_rcv empty 17 7 0 10 -262144
-1 -1 0 1;
#X obj 31 92 mknob 25 100 0 1 0 1 sd_level_snd sd_level_rcv Level -2
-6 0 8 -2097 -1 -1 6105 1;
#X obj 71 92 mknob 25 100 1 800 0 1 sd_delay_snd sd_delay_rcv D.Time
-2 -6 0 8 -262144 -1 -1 7925 1;
#X obj 111 92 mknob 25 100 0 0.9 0 1 sd_fback_snd sd_fback_rcv F.Back
-2 -6 0 8 -262144 -1 -1 1980 1;
#X obj 332 124 r sd_delay_snd;
#X obj 332 153 r sd_fback_snd;
#X obj 332 286 r sd_level_snd;
#X obj 212 97 Effect_AB_Switch~;
#X obj 259 207 Simple_Delay~;
#X obj 212 326 Wet_Dry_Mix~;
#X text 328 422 Igor Mircic 2017;
#X connect 1 0 13 0;
#X connect 4 0 6 0;
#X connect 6 0 13 1;
#X connect 10 0 14 1;
#X connect 11 0 14 2;
#X connect 12 0 15 2;
#X connect 13 0 15 0;
#X connect 13 1 14 0;
#X connect 13 2 14 3;
#X connect 14 0 15 1;
#X connect 15 0 2 0;
#X connect 15 1 2 0;
#X coords 0 -1 1 1 120 76 1 24 50;
#X restore 101 624 pd Delay;
#X obj 131 107 tuner;
#X text 447 115 <-- Switch audio on to tune up.;
#X msg 225 31 40 45 50 55 59 64;
#X text 336 30 <-- Standard tuning (E \, A \, D \, G \, B \, E);
#X text 336 51 <-- Open-G tuning (D \, G \, D \, G \, B \, D);
#X msg 225 53 38 43 50 55 59 62;
#X text 515 803 Igor Mircic 2017;
#N canvas 2218 0 515 681 Reverb 0;
#X obj 260 192 Reverb~;
#X obj 27 53 cnv 15 114 70 empty empty Reverb 7 8 0 14 -256520 -66577
0;
#X obj 211 12 inlet~;
#X obj 211 372 outlet~;
#X text 129 265 Dry path -->;
#X obj 272 12 inlet;
#X text 257 265 <-- Wet path;
#X obj 125 53 tgl 15 1 rev_on_snd rev_on_rcv empty 17 7 0 10 -262144
-1 -1 0 1;
#X obj 30 92 mknob 25 100 0 1 0 1 rev_level_snd rev_level_rcv Level
-2 -6 0 8 -2097 -1 -1 9900 1;
#X obj 68 92 mknob 25 100 0 1 0 1 rev_roomsize_snd rev_roomsize_rcv
R.Size -2 -6 0 8 -262144 -1 -1 3132 1;
#X obj 107 92 mknob 25 100 0 1 0 1 rev_damping_snd rev_damping_rcv
D.Level -2 -6 0 8 -262144 -1 -1 4360 1;
#X obj 211 97 Effect_AB_Switch~;
#X obj 211 326 Wet_Dry_Mix~;
#X text 327 422 Igor Mircic 2017;
#X obj 331 124 r rev_roomsize_snd;
#X obj 331 153 r rev_damping_snd;
#X obj 331 286 r rev_level_snd;
#X connect 0 0 12 1;
#X connect 2 0 11 0;
#X connect 5 0 7 0;
#X connect 7 0 11 1;
#X connect 11 0 12 0;
#X connect 11 1 0 0;
#X connect 11 2 0 3;
#X connect 12 0 3 0;
#X connect 12 1 3 0;
#X connect 14 0 0 1;
#X connect 15 0 0 2;
#X connect 16 0 12 2;
#X coords 0 -1 1 1 120 76 1 24 50;
#X restore 101 709 pd Reverb;
#N canvas 676 183 515 681 Phaser 0;
#X obj 27 53 cnv 15 149 70 empty empty Phaser 7 8 0 14 -187246 -66577
0;
#X obj 211 12 inlet~;
#X obj 211 372 outlet~;
#X text 129 265 Dry path -->;
#X obj 272 12 inlet;
#X text 261 265 <-- Wet path;
#X obj 161 53 tgl 15 1 ph_on_snd ph_on_rcv empty 17 7 0 10 -262144
-1 -1 0 1;
#X obj 30 92 mknob 25 100 0 1 0 1 ph_level_snd ph_level_rcv Level -2
-6 0 8 -262144 -1 -1 5461 1;
#X obj 68 92 mknob 25 100 0 10 0 1 ph_speed_snd ph_speed_rcv Speed
-2 -6 0 8 -262144 -1 -1 4135 1;
#X obj 107 92 mknob 25 100 0 3 0 1 ph_depth_snd ph_depth_rcv Depth
-2 -6 0 8 -262144 -1 -1 5407 1;
#X obj 211 97 Effect_AB_Switch~;
#X obj 211 326 Wet_Dry_Mix~;
#X text 327 422 Igor Mircic 2017;
#X obj 147 92 mknob 25 100 -0.9 0.9 0 1 ph_fback_snd ph_fback_rcv F.Back
-2 -6 0 8 -262144 -1 -1 3128 1;
#X obj 331 286 r ph_level_snd;
#X obj 331 124 r ph_speed_snd;
#X obj 331 148 r ph_depth_snd;
#X obj 331 172 r ph_fback_snd;
#X obj 260 226 Phaser~;
#X connect 1 0 10 0;
#X connect 4 0 6 0;
#X connect 6 0 10 1;
#X connect 10 0 11 0;
#X connect 10 1 18 0;
#X connect 10 2 18 4;
#X connect 11 0 2 0;
#X connect 11 1 2 0;
#X connect 14 0 11 2;
#X connect 15 0 18 1;
#X connect 16 0 18 2;
#X connect 17 0 18 3;
#X connect 18 0 11 1;
#X coords 0 -1 1 1 155 76 1 24 50;
#X restore 101 284 pd Phaser;
#N canvas 2081 0 830 681 Tremolo 0;
#X obj 27 53 cnv 15 149 70 empty empty Tremolo 7 8 0 14 -118763 -66577
0;
#X obj 211 12 inlet~;
#X obj 211 372 outlet~;
#X text 129 265 Dry path -->;
#X obj 272 12 inlet;
#X text 261 265 <-- Wet path;
#X obj 161 53 tgl 15 1 tm_on_snd tm_on_rcv empty 17 7 0 10 -262144
-1 -1 0 1;
#X obj 30 92 mknob 25 100 0 1 0 1 tm_level_snd tm_level_rcv Level -2
-6 0 8 -262144 -1 -1 7880 1;
#X obj 68 92 mknob 25 100 0.5 25 0 1 tm_rate_snd tm_rate_rcv Rate -2
-6 0 8 -262144 -1 -1 4297 1;
#X obj 107 92 mknob 25 100 1 20 1 0 tm_shape_snd tm_shape_rcv Shape
-2 -6 0 8 -262144 -1 -1 0 1;
#X obj 211 97 Effect_AB_Switch~;
#X obj 211 326 Wet_Dry_Mix~;
#X text 327 422 Igor Mircic 2017;
#X obj 147 92 mknob 25 100 0 0.5 0 1 tm_depth_snd tm_depth_rcv Depth
-2 -6 0 8 -262144 -1 -1 5580 1;
#X obj 260 225 Tremolo~;
#X obj 331 124 r tm_rate_snd;
#X obj 331 148 r tm_shape_snd;
#X obj 331 172 r tm_depth_snd;
#X text 419 124 <-- Frequency of the oscillator ("Rate");
#X text 424 148 <-- Number X (between 1 and 20 \, log) ("Shape");
#X obj 331 286 r tm_level_snd;
#X connect 1 0 10 0;
#X connect 4 0 6 0;
#X connect 6 0 10 1;
#X connect 10 0 11 0;
#X connect 10 1 14 0;
#X connect 10 2 14 4;
#X connect 11 0 2 0;
#X connect 11 1 2 0;
#X connect 14 0 11 1;
#X connect 15 0 14 1;
#X connect 16 0 14 2;
#X connect 17 0 14 3;
#X connect 20 0 11 2;
#X coords 0 -1 1 1 155 76 1 24 50;
#X restore 101 369 pd Tremolo;
#N canvas 1994 10 727 675 Vibrato 0;
#X obj 27 53 cnv 15 114 70 empty empty Vibrato 8 8 0 14 -126910 -66577
0;
#X obj 212 12 inlet~;
#X obj 212 372 outlet~;
#X text 130 265 Dry path -->;
#X obj 273 12 inlet;
#X text 258 265 <-- Wet path;
#X obj 126 53 tgl 15 1 vi_on_snd vi_on_rcv empty 17 7 0 10 -262144
-1 -1 0 1;
#X obj 31 92 mknob 25 100 0 1 0 1 vi_level_snd vi_level_rcv Level -2
-6 0 8 -262144 -1 -1 5948 1;
#X obj 71 92 mknob 25 100 1 5 0 1 vi_speed_snd vi_speed_rcv Speed -2
-6 0 8 -262144 -1 -1 9900 1;
#X obj 111 92 mknob 25 100 1 5 0 1 vi_depth_snd vi_depth_rcv Depth
-2 -6 0 8 -262144 -1 -1 5268 1;
#X obj 212 97 Effect_AB_Switch~;
#X obj 212 326 Wet_Dry_Mix~;
#X text 328 422 Igor Mircic 2017;
#X obj 262 208 Vibrato~;
#X obj 332 286 r vi_level_snd;
#X obj 332 124 r vi_speed_snd;
#X obj 332 153 r vi_depth_snd;
#X text 425 124 <-- Speed (frequency of the LFO);
#X text 424 152 <-- Depth (change the length of the delay line);
#X connect 1 0 10 0;
#X connect 4 0 6 0;
#X connect 6 0 10 1;
#X connect 10 0 11 0;
#X connect 10 1 13 0;
#X connect 10 2 13 3;
#X connect 11 0 2 0;
#X connect 11 1 2 0;
#X connect 13 0 11 1;
#X connect 14 0 11 2;
#X connect 15 0 13 1;
#X connect 16 0 13 2;
#X coords 0 -1 1 1 120 76 1 24 50;
#X restore 101 454 pd Vibrato;
#N canvas 1090 29 830 681 WahAuto 0;
#X obj 27 53 cnv 15 190 70 empty empty WahAuto 7 8 0 14 -261597 -66577
0;
#X obj 261 12 inlet~;
#X obj 261 372 outlet~;
#X text 179 265 Dry path -->;
#X obj 322 12 inlet;
#X text 311 265 <-- Wet path;
#X obj 202 53 tgl 15 1 wa_on_snd wa_on_rcv empty 17 7 0 10 -262144
-1 -1 0 1;
#X obj 30 92 mknob 25 100 0 1 0 1 wa_level_snd wa_level_rcv Level -2
-6 0 8 -262144 -1 -1 7165 1;
#X obj 68 92 mknob 25 100 0.5 4 0 1 wa_rate_snd wa_rate_rcv Rate -2
-6 0 8 -262144 -1 -1 7595 1;
#X obj 147 92 mknob 25 100 0 700 0 0 wa_freqmin_snd wa_freqmin_rcv
F.Min -2 -6 0 8 -262144 -1 -1 0 1;
#X obj 261 97 Effect_AB_Switch~;
#X obj 261 326 Wet_Dry_Mix~;
#X text 377 422 Igor Mircic 2017;
#X obj 107 92 mknob 25 100 700 6000 0 1 wa_freqmax_snd wa_freqmax_rcv
F.Max -2 -6 0 8 -262144 -1 -1 2607 1;
#X obj 187 92 mknob 25 100 0 20 0 1 wa_q_snd wa_q_rcv Q -2 -6 0 8 -262144
-1 -1 3893 1;
#X obj 311 212 WahAuto~;
#X obj 381 286 r wa_level_snd;
#X obj 413 103 r wa_rate_snd;
#X obj 413 147 r wa_freqmin_snd;
#X obj 413 125 r wa_freqmax_snd;
#X obj 413 169 r wa_q_snd;
#X text 518 125 <-- Maximum of the freq. range;
#X text 518 147 <-- Minimum of the freq. range;
#X connect 1 0 10 0;
#X connect 4 0 6 0;
#X connect 6 0 10 1;
#X connect 10 0 11 0;
#X connect 10 1 15 0;
#X connect 10 2 15 5;
#X connect 11 0 2 0;
#X connect 11 1 2 0;
#X connect 15 0 11 1;
#X connect 16 0 11 2;
#X connect 17 0 15 1;
#X connect 18 0 15 3;
#X connect 19 0 15 2;
#X connect 20 0 15 4;
#X coords 0 -1 1 1 197 76 1 24 50;
#X restore 101 539 pd WahAuto;
#X text 182 -26 <-- Subpatch for routing OSC massages;
#X connect 3 0 14 0;
#X connect 4 0 6 0;
#X connect 4 0 3 0;
#X connect 5 0 13 0;
#X connect 8 0 6 1;
#X connect 11 0 6 1;
#X connect 13 0 0 0;
#X connect 13 0 0 1;
#X connect 14 0 15 0;
#X connect 15 0 16 0;
#X connect 16 0 17 0;
#X connect 17 0 5 0;
