#N canvas -7 4 643 948 10;
#X obj 101 624 dac~, f 5;
#X obj 2 -27 pddp/dsp;
#N canvas 420 205 878 566 OSC 0;
#X obj 111 52 unpackOSC;
#X obj 111 18 udpreceive 8000;
#X obj 111 86 routeOSC /1;
#X obj 111 409 sendOSC;
#X obj -39 174 s sf_volume_rcv;
#X obj 111 181 s sf_fuzz_rcv;
#X obj -39 140 routeOSC /sf_volume;
#X obj 111 140 routeOSC /sf_fuzz;
#X obj -38 289 r sf_volume_snd;
#X msg -38 345 send /1/sf_volume \$1;
#X obj 144 289 r sf_fuzz_snd;
#X msg 144 345 send /1/sf_fuzz \$1;
#X obj 110 230 loadbang;
#X msg 111 258 connect 192.168.1.3 9000;
#X connect 0 0 2 0;
#X connect 1 0 0 0;
#X connect 2 0 6 0;
#X connect 2 0 7 0;
#X connect 6 0 4 0;
#X connect 7 0 5 0;
#X connect 8 0 9 0;
#X connect 9 0 3 0;
#X connect 10 0 11 0;
#X connect 11 0 3 0;
#X connect 12 0 13 0;
#X connect 13 0 3 0;
#X restore 87 -27 pd OSC;
#N canvas 322 11 580 546 Fuzz 0;
#X obj 27 53 cnv 15 114 70 empty empty Fuzz 8 8 0 14 -243521 -66577
0;
#X obj 212 12 inlet~;
#X obj 212 372 outlet~;
#X text 130 265 Dry path -->;
#X obj 273 12 inlet;
#X text 258 265 <-- Wet path;
#X obj 126 53 tgl 15 1 empty empty empty 17 7 0 10 -262144 -1 -1 0
1;
#X obj 72 93 mknob 25 100 1 100 0 1 sf_volume_snd sf_volume_rcv Gain
-2 -6 0 8 -262144 -1 -1 4800 1;
#X obj 113 93 mknob 25 100 1 0.2 0 1 sf_fuzz_snd sf_fuzz_rcv Fuzz -2
-6 0 8 -262144 -1 -1 6700 1;
#X obj 335 126 r sf_volume_snd;
#X obj 335 155 r sf_fuzz_snd;
#X obj 31 93 mknob 25 100 0 1 0 1 sf_level_snd sf_level_rcv Level -2
-6 0 8 -2097 -1 -1 3400 1;
#X obj 335 267 r sf_level_snd;
#X obj 212 97 Effect_AB_Switch~;
#X obj 258 204 Simple_Fuzz~;
#X obj 212 325 Wet_Dry_Mix~;
#X text 326 422 Igor Mircic 2017;
#X connect 1 0 13 0;
#X connect 4 0 6 0;
#X connect 6 0 13 1;
#X connect 9 0 14 1;
#X connect 10 0 14 2;
#X connect 12 0 15 2;
#X connect 13 0 15 0;
#X connect 13 1 14 0;
#X connect 13 2 14 3;
#X connect 14 0 15 1;
#X connect 15 0 2 0;
#X connect 15 1 2 0;
#X coords 0 -1 1 1 120 76 1 24 50;
#X restore 101 199 pd Fuzz;
#X obj 101 53 adc~ 1;
#N canvas 483 175 727 658 Delay 0;
#X obj 27 53 cnv 15 114 70 empty empty Delay 8 8 0 14 -3446 -66577
0;
#X obj 212 12 inlet~;
#X obj 212 372 outlet~;
#X text 130 265 Dry path -->;
#X obj 273 12 inlet;
#X text 258 265 <-- Wet path;
#X obj 126 53 tgl 15 1 empty empty empty 17 7 0 10 -262144 -1 -1 0
1;
#X obj 31 92 mknob 25 100 0 1 0 1 sd_level_snd sd_level_rcv Level -2
-6 0 8 -2097 -1 -1 1200 1;
#X obj 71 92 mknob 25 100 1 800 0 1 sd_delay_snd sd_delay_rcv D.Time
-2 -6 0 8 -262144 -1 -1 2000 1;
#X obj 111 92 mknob 25 100 0 0.9 0 1 sd_fback_snd sd_fback_rcv F.Back
-2 -6 0 8 -262144 -1 -1 3300 1;
#X obj 332 124 r sd_delay_snd;
#X obj 332 153 r sd_fback_snd;
#X obj 332 286 r sd_level_snd;
#X obj 212 97 Effect_AB_Switch~;
#X obj 259 207 Simple_Delay~;
#X obj 212 326 Wet_Dry_Mix~;
#X text 328 422 Igor Mircic 2017;
#X connect 1 0 13 0;
#X connect 4 0 6 0;
#X connect 6 0 13 1;
#X connect 10 0 14 1;
#X connect 11 0 14 2;
#X connect 12 0 15 2;
#X connect 13 0 15 0;
#X connect 13 1 14 0;
#X connect 13 2 14 3;
#X connect 14 0 15 1;
#X connect 15 0 2 0;
#X connect 15 1 2 0;
#X coords 0 -1 1 1 120 76 1 24 50;
#X restore 101 454 pd Delay;
#X obj 131 107 tuner;
#X text 447 115 <-- Switch audio on to tune up.;
#X msg 225 31 40 45 50 55 59 64;
#X text 336 30 <-- Standard tuning (E \, A \, D \, G \, B \, E);
#X text 336 51 <-- Open-G tuning (D \, G \, D \, G \, B \, D);
#X msg 225 53 38 43 50 55 59 62;
#X text 515 803 Igor Mircic 2017;
#N canvas 827 161 515 589 Reverb 0;
#X obj 260 192 Reverb~;
#X obj 27 53 cnv 15 114 70 empty empty Reverb 7 8 0 14 -118080 -66577
0;
#X obj 211 12 inlet~;
#X obj 211 372 outlet~;
#X text 129 265 Dry path -->;
#X obj 272 12 inlet;
#X text 257 265 <-- Wet path;
#X obj 125 53 tgl 15 1 empty empty empty 17 7 0 10 -262144 -1 -1 0
1;
#X obj 30 92 mknob 25 100 0 1 0 1 rev_level_snd rev_level_rcv Level
-2 -6 0 8 -2097 -1 -1 700 1;
#X obj 68 92 mknob 25 100 0 1 0 1 rev_roomsize_snd rev_roomsize_rcv
R.Size -2 -6 0 8 -262144 -1 -1 3800 1;
#X obj 107 92 mknob 25 100 0 1 0 1 rev_damping_snd rev_damping_rcv
D.Level -2 -6 0 8 -262144 -1 -1 4200 1;
#X obj 211 97 Effect_AB_Switch~;
#X obj 211 326 Wet_Dry_Mix~;
#X text 327 422 Igor Mircic 2017;
#X obj 331 124 r rev_roomsize_snd;
#X obj 331 153 r rev_damping_snd;
#X obj 331 286 r rev_level_snd;
#X connect 0 0 12 1;
#X connect 2 0 11 0;
#X connect 5 0 7 0;
#X connect 7 0 11 1;
#X connect 11 0 12 0;
#X connect 11 1 0 0;
#X connect 11 2 0 3;
#X connect 12 0 3 0;
#X connect 12 1 3 0;
#X connect 14 0 0 1;
#X connect 15 0 0 2;
#X connect 16 0 12 2;
#X coords 0 -1 1 1 120 76 1 24 50;
#X restore 101 539 pd Reverb;
#N canvas 357 224 515 612 Phaser 0;
#X obj 27 53 cnv 15 149 70 empty empty Phaser 7 8 0 14 -118080 -66577
0;
#X obj 211 12 inlet~;
#X obj 211 372 outlet~;
#X text 129 265 Dry path -->;
#X obj 272 12 inlet;
#X text 261 265 <-- Wet path;
#X obj 161 53 tgl 15 1 empty empty empty 17 7 0 10 -262144 -1 -1 0
1;
#X obj 30 92 mknob 25 100 0 1 0 1 ph_level_snd ph_level_rcv Level -2
-6 0 8 -2097 -1 -1 1000 1;
#X obj 68 92 mknob 25 100 0 10 0 1 ph_speed_snd ph_speed_rcv Speed
-2 -6 0 8 -262144 -1 -1 3100 1;
#X obj 107 92 mknob 25 100 0 3 0 1 ph_depth_snd ph_depth_rcv Depth
-2 -6 0 8 -262144 -1 -1 3900 1;
#X obj 211 97 Effect_AB_Switch~;
#X obj 211 326 Wet_Dry_Mix~;
#X text 327 422 Igor Mircic 2017;
#X obj 147 92 mknob 25 100 -0.9 0.9 0 1 ph_fback_snd ph_fback_rcv F.Back
-2 -6 0 8 -262144 -1 -1 3900 1;
#X obj 331 286 r ph_level_snd;
#X obj 331 124 r ph_speed_snd;
#X obj 331 148 r ph_depth_snd;
#X obj 331 172 r ph_fback_snd;
#X obj 260 226 Phaser~;
#X connect 1 0 10 0;
#X connect 4 0 6 0;
#X connect 6 0 10 1;
#X connect 10 0 11 0;
#X connect 10 1 18 0;
#X connect 10 2 18 4;
#X connect 11 0 2 0;
#X connect 11 1 2 0;
#X connect 14 0 11 2;
#X connect 15 0 18 1;
#X connect 16 0 18 2;
#X connect 17 0 18 3;
#X connect 18 0 11 1;
#X coords 0 -1 1 1 155 76 1 24 50;
#X restore 101 284 pd Phaser;
#N canvas 357 224 830 612 Tremolo 0;
#X obj 27 53 cnv 15 149 70 empty empty Tremolo 7 8 0 14 -118763 -66577
0;
#X obj 211 12 inlet~;
#X obj 211 372 outlet~;
#X text 129 265 Dry path -->;
#X obj 272 12 inlet;
#X text 261 265 <-- Wet path;
#X obj 161 53 tgl 15 1 empty empty empty 17 7 0 10 -262144 -1 -1 0
1;
#X obj 30 92 mknob 25 100 0 1 0 1 tm_level_snd tm_level_rcv Level -2
-6 0 8 -2097 -1 -1 300 1;
#X obj 68 92 mknob 25 100 0.5 25 0 1 tm_rate_snd tm_rate_rcv Rate -2
-6 0 8 -262144 -1 -1 2600 1;
#X obj 107 92 mknob 25 100 1 20 1 0 tm_shape_snd tm_shape_rcv Shape
-2 -6 0 8 -262144 -1 -1 7100 1;
#X obj 211 97 Effect_AB_Switch~;
#X obj 211 326 Wet_Dry_Mix~;
#X text 327 422 Igor Mircic 2017;
#X obj 147 92 mknob 25 100 0 0.5 0 1 tm_depth_snd tm_depth_rcv Depth
-2 -6 0 8 -262144 -1 -1 6600 1;
#X obj 260 225 Tremolo~;
#X obj 331 124 r tm_rate_snd;
#X obj 331 148 r tm_shape_snd;
#X obj 331 172 r tm_depth_snd;
#X text 419 124 <-- Frequency of the oscillator ("Rate");
#X text 424 148 <-- Number X (between 1 and 20 \, log) ("Shape");
#X obj 331 286 r tm_level_snd;
#X connect 1 0 10 0;
#X connect 4 0 6 0;
#X connect 6 0 10 1;
#X connect 10 0 11 0;
#X connect 10 1 14 0;
#X connect 11 0 2 0;
#X connect 11 1 2 0;
#X connect 14 0 11 1;
#X connect 15 0 14 1;
#X connect 16 0 14 2;
#X connect 17 0 14 3;
#X connect 20 0 11 2;
#X coords 0 -1 1 1 155 76 1 24 50;
#X restore 101 369 pd Tremolo;
#X connect 3 0 14 0;
#X connect 4 0 6 0;
#X connect 4 0 3 0;
#X connect 5 0 13 0;
#X connect 8 0 6 1;
#X connect 11 0 6 1;
#X connect 13 0 0 0;
#X connect 13 0 0 1;
#X connect 14 0 15 0;
#X connect 15 0 5 0;
